<?xml version="1.0" standalone="no"?>
<!DOCTYPE svg PUBLIC "-//W3C//DTD SVG 20010904//EN"
 "http://www.w3.org/TR/2001/REC-SVG-20010904/DTD/svg10.dtd">
<svg version="1.0" xmlns="http://www.w3.org/2000/svg"
 width="512.000000pt" height="512.000000pt" viewBox="0 0 512.000000 512.000000"
 preserveAspectRatio="xMidYMid meet">

<g transform="translate(0.000000,512.000000) scale(0.100000,-0.100000)"
fill="#000000" stroke="none">
<path d="M1455 5110 c-137 -4 -304 -13 -370 -19 -256 -26 -612 -107 -716 -163
l-63 -33 59 -6 c33 -4 134 -12 225 -19 91 -6 208 -17 260 -25 89 -12 96 -12
115 5 51 47 118 45 164 -4 65 -70 11 -186 -86 -186 -30 0 -72 23 -87 48 -12
21 -26 -4 -26 -49 0 -97 70 -194 162 -225 108 -36 225 15 281 121 24 46 28
146 8 183 -7 13 -11 25 -9 27 6 6 352 -70 508 -111 222 -58 222 -58 249 -110
36 -67 100 -107 178 -112 34 -2 76 0 92 6 l31 11 40 -82 c22 -45 50 -120 61
-167 26 -104 48 -149 91 -185 47 -40 89 -55 152 -55 118 0 211 86 225 207 l7
58 6 -40 c4 -22 10 -82 14 -133 l7 -94 36 7 c66 12 126 58 157 117 8 16 17 28
19 28 3 0 67 -39 143 -86 155 -98 297 -202 384 -282 l59 -55 -35 -36 c-45 -46
-66 -97 -66 -161 0 -188 216 -295 362 -179 l38 30 40 -63 c59 -92 144 -269
179 -373 111 -331 101 -685 -27 -983 -43 -101 -117 -230 -159 -280 -25 -30
-31 -32 -55 -23 -77 29 -163 -46 -144 -124 3 -14 9 -35 12 -47 4 -19 -11 -36
-94 -107 -319 -269 -779 -479 -1302 -594 -63 -14 -124 -28 -135 -30 -48 -11
81 -6 181 8 683 91 1405 454 1799 906 123 140 199 251 275 403 122 242 168
423 177 696 3 103 1 206 -5 250 -9 58 -8 78 2 90 16 19 98 154 120 197 36 70
84 203 100 272 69 302 -23 693 -219 939 -171 213 -424 353 -712 391 -109 15
-400 17 -443 3 -19 -6 -90 -23 -158 -37 -67 -15 -154 -37 -192 -50 l-70 -24
-102 45 c-227 100 -499 189 -734 239 -294 63 -550 79 -1009 65z"/>
<path d="M535 4176 c-83 -37 -86 -159 -5 -201 95 -49 197 42 156 140 -25 59
-94 87 -151 61z"/>
<path d="M283 2295 c-52 -16 -129 -64 -164 -102 -28 -30 -79 -104 -79 -114 0
-4 17 -1 38 7 22 8 82 13 150 14 l112 0 -20 20 c-48 48 -49 118 -3 164 29 29
26 30 -34 11z"/>
<path d="M6 1879 c15 -146 70 -296 155 -421 53 -78 187 -213 256 -260 l53 -35
-81 -88 c-160 -175 -298 -379 -354 -520 -25 -63 -27 -78 -23 -165 4 -77 10
-106 34 -154 70 -148 242 -248 398 -233 134 13 234 75 339 209 132 170 242
364 326 575 60 151 60 138 -5 152 -74 17 -126 64 -154 137 -26 71 -25 127 4
189 31 69 82 110 150 126 52 11 56 14 56 42 l0 29 -35 -31 -36 -31 -160 0
-161 0 -34 34 c-38 38 -45 86 -19 135 16 31 69 61 109 61 14 0 26 3 26 6 0 12
-112 174 -149 215 l-36 40 -37 -15 c-26 -11 -69 -16 -138 -16 l-101 0 34 -30
c39 -34 49 -67 36 -114 -15 -53 -53 -81 -110 -81 -41 0 -53 5 -80 31 -52 52
-43 138 19 177 26 16 25 16 -69 17 -126 0 -153 6 -189 43 l-29 30 5 -54z"/>
</g>
</svg>
